<?xml version="1.0" standalone="no"?>
<!DOCTYPE svg PUBLIC "-//W3C//DTD SVG 20010904//EN"
 "http://www.w3.org/TR/2001/REC-SVG-20010904/DTD/svg10.dtd">
<svg version="1.0" xmlns="http://www.w3.org/2000/svg"
 width="2848.000000pt" height="2848.000000pt" viewBox="0 0 2848.000000 2848.000000"
 preserveAspectRatio="xMidYMid meet">
<metadata>
Created by potrace 1.14, written by Peter Selinger 2001-2017
</metadata>
<g transform="translate(0.000000,2848.000000) scale(0.100000,-0.100000)"
fill="#000000" stroke="none">
<path d="M18287 17404 c-1 -1 -27 -4 -57 -7 -235 -26 -465 -178 -554 -367 -11
-25 -25 -48 -31 -52 -5 -4 -7 -8 -3 -8 4 0 3 -11 -2 -26 -6 -14 -12 -37 -15
-52 -3 -15 -7 -38 -10 -52 -10 -44 -6 -185 5 -235 7 -28 13 -57 15 -66 12 -59
122 -236 166 -269 32 -23 74 -57 83 -65 39 -38 197 -105 281 -120 17 -2 41 -7
55 -10 96 -19 337 3 423 38 19 9 38 13 41 9 3 -3 6 -1 6 5 0 6 10 13 23 17 34
8 138 78 183 123 43 43 104 118 104 128 0 4 9 20 21 36 11 16 18 29 14 29 -3
0 1 13 10 29 8 17 16 38 18 48 1 10 5 23 9 28 12 19 21 90 23 182 4 172 -52
318 -165 433 -146 148 -324 218 -568 224 -40 1 -74 1 -75 0z"/>
<path d="M10790 14215 c0 -1581 4 -2846 9 -2849 8 -5 47 -8 81 -5 8 0 26 0 40
0 14 -1 33 -1 43 -1 9 0 28 0 42 0 31 0 36 0 160 1 55 0 106 0 113 -1 24 0 48
0 95 0 27 0 53 -2 58 -5 5 -4 9 -1 9 5 0 6 4 8 10 5 8 -5 61 -7 130 -5 17 1
144 1 175 0 27 0 66 1 90 4 11 1 31 -1 45 -4 14 -4 36 -4 50 0 14 4 30 3 37
-2 8 -7 11 693 10 2844 l-2 2853 -597 2 -598 1 0 -2843z"/>
<path d="M317 16725 c-1 -5 -2 -1213 -2 -2684 l1 -2674 22 -8 c12 -5 22 -4 22
0 0 5 15 6 33 2 18 -5 41 -5 51 -1 10 3 40 3 67 0 27 -4 49 -3 49 1 0 5 7 6
15 3 22 -9 145 -10 145 -2 0 4 6 5 13 3 20 -8 137 -11 137 -3 0 4 13 3 28 -2
16 -4 36 -4 44 1 8 5 29 5 45 0 17 -5 36 -5 43 -1 7 5 23 5 34 0 12 -4 30 -4
41 0 11 4 24 5 28 3 5 -3 39 -5 75 -4 37 1 78 1 92 1 14 -1 31 -1 38 -1 6 1
20 1 30 1 9 0 31 0 47 1 41 0 44 0 99 -3 l49 -2 1 33 c1 18 -2 35 -7 38 -4 2
-4 9 -1 15 4 6 7 326 6 712 l0 703 572 0 573 0 103 -151 c57 -83 107 -153 110
-156 3 -3 17 -23 30 -45 13 -22 32 -49 42 -59 10 -11 18 -23 18 -28 0 -4 6
-16 14 -25 33 -41 86 -114 86 -118 0 -6 41 -66 51 -75 3 -3 45 -63 93 -133
115 -169 213 -309 223 -322 29 -36 73 -105 73 -113 0 -6 4 -12 8 -14 5 -2 35
-41 67 -88 32 -47 69 -99 82 -116 13 -17 23 -37 23 -44 0 -8 9 -11 25 -8 14 3
25 2 25 -1 0 -3 32 -6 70 -6 39 0 70 4 70 8 0 5 5 5 10 2 6 -4 36 -6 68 -6 61
1 70 1 175 -2 37 -1 67 2 67 6 0 5 5 5 10 2 13 -8 118 -10 126 -3 3 4 18 3 32
-1 15 -4 38 -5 52 -1 14 4 37 3 51 -1 15 -4 32 -3 39 1 7 5 23 5 34 0 12 -4
31 -4 44 1 13 5 21 5 18 1 -5 -8 72 -8 80 1 3 3 11 4 18 1 20 -8 126 -10 126
-2 0 4 13 3 29 -2 16 -4 32 -6 35 -3 7 8 96 9 96 1 0 -3 9 -4 20 -1 11 3 20 8
20 12 0 4 -31 51 -70 105 -38 53 -70 101 -70 107 0 5 -4 9 -10 9 -5 0 -10 7
-10 15 0 8 -3 15 -7 15 -5 0 -24 25 -43 55 -19 30 -38 55 -42 55 -5 0 -8 5 -8
10 0 6 -5 16 -11 23 -6 7 -57 80 -113 162 -57 83 -110 157 -117 165 -8 9 -20
28 -28 43 -8 15 -18 27 -23 27 -4 0 -8 4 -8 9 0 8 -36 62 -126 188 -9 12 -47
66 -84 120 -38 54 -74 103 -79 110 -6 7 -11 15 -11 18 0 3 -5 11 -11 18 -8 10
-102 142 -139 197 -30 45 -95 136 -99 140 -4 3 -12 17 -19 31 -8 14 -25 39
-38 54 -13 15 -24 32 -24 36 0 5 44 30 97 57 145 72 292 164 315 197 4 5 8 7
8 2 0 -4 17 7 38 25 56 50 242 234 242 241 0 3 11 18 24 32 61 66 215 325 216
363 0 6 5 12 10 12 6 0 10 6 10 14 0 8 5 27 12 43 6 15 12 30 13 33 1 3 4 12
8 20 9 25 37 115 42 136 2 10 10 48 19 84 8 36 18 88 21 115 3 28 9 75 13 105
3 30 6 134 6 230 -1 163 -5 235 -20 335 -3 22 -7 49 -8 60 -1 11 -5 29 -9 40
-3 11 -8 31 -11 45 -24 127 -129 400 -174 453 -8 9 -12 17 -9 17 12 0 -115
181 -176 252 -91 107 -184 195 -285 271 -34 26 -67 47 -72 47 -6 0 -10 4 -10
8 0 5 -12 15 -27 22 -16 8 -38 23 -50 34 -13 11 -23 16 -23 11 0 -4 -8 -1 -18
8 -19 17 -262 139 -262 131 0 -3 -10 1 -22 8 -13 6 -27 13 -33 15 -5 1 -60 20
-122 40 -61 21 -115 39 -120 40 -4 1 -44 10 -88 22 -79 20 -121 28 -180 37
-16 2 -41 6 -55 9 -32 7 -94 15 -145 20 -22 2 -69 7 -105 11 -113 11 -2629 11
-2633 -1z m2422 -1009 c57 -4 107 -8 110 -10 3 -2 31 -7 61 -11 84 -10 281
-68 311 -91 8 -6 30 -17 49 -24 41 -16 160 -101 205 -145 48 -48 105 -121 105
-134 0 -6 4 -11 9 -11 4 0 22 -30 39 -67 66 -144 83 -227 87 -408 3 -163 -7
-242 -47 -365 -48 -148 -146 -285 -271 -379 -30 -23 -59 -41 -65 -41 -7 0 -12
-4 -12 -9 0 -9 -172 -91 -193 -91 -7 0 -17 -3 -21 -7 -3 -4 -12 -8 -19 -9 -7
-1 -32 -7 -57 -14 -50 -13 -56 -15 -120 -25 -25 -3 -57 -8 -71 -11 -14 -2 -52
-6 -85 -9 -83 -7 -1171 -8 -1182 -1 -6 4 -10 353 -10 935 0 834 2 930 16 933
29 6 1057 0 1161 -6z"/>
<path d="M7777 15554 c-1 -1 -58 -4 -127 -8 -69 -3 -138 -8 -155 -10 -16 -3
-46 -7 -65 -10 -32 -4 -49 -7 -115 -21 -11 -2 -33 -7 -50 -10 -70 -12 -325
-92 -340 -106 -5 -5 -15 -9 -23 -9 -19 0 -262 -122 -317 -159 -25 -17 -50 -31
-56 -31 -5 0 -9 -4 -9 -10 0 -5 -6 -10 -12 -10 -13 0 -37 -17 -103 -72 -18
-16 -35 -28 -37 -28 -12 0 -158 -138 -233 -221 -98 -108 -255 -327 -255 -356
0 -6 -4 -13 -9 -15 -16 -6 -143 -286 -155 -343 -2 -5 -12 -41 -23 -80 -18 -61
-31 -107 -38 -140 -3 -10 -7 -35 -25 -140 -33 -196 -30 -558 6 -735 3 -14 7
-38 10 -55 12 -67 61 -252 74 -280 5 -11 20 -49 34 -85 73 -198 192 -391 361
-589 39 -46 186 -182 240 -224 5 -4 21 -17 35 -28 24 -20 113 -82 148 -104 9
-5 34 -21 57 -35 52 -32 265 -139 265 -134 0 3 12 -2 28 -10 30 -15 221 -83
255 -91 12 -2 51 -11 87 -20 112 -28 119 -30 210 -45 190 -31 559 -54 588 -36
6 3 13 2 17 -4 4 -6 10 -8 15 -5 5 3 56 8 112 10 57 3 112 7 123 9 11 2 49 7
85 11 36 4 72 8 80 10 8 1 35 6 60 10 25 4 66 13 93 20 26 8 49 14 52 14 71 5
337 102 473 172 74 39 273 165 282 179 3 5 23 22 45 40 60 46 195 182 195 196
0 6 -19 32 -42 56 -36 38 -137 147 -252 273 -90 98 -196 212 -226 244 -19 20
-51 55 -71 77 l-36 41 -39 -34 c-104 -91 -194 -154 -303 -211 -54 -29 -106
-52 -115 -52 -9 0 -16 -4 -16 -8 0 -5 -6 -9 -12 -10 -7 -1 -53 -13 -103 -27
-150 -42 -268 -54 -485 -50 -107 2 -206 6 -220 9 -342 69 -548 179 -726 388
-57 67 -157 245 -168 301 -2 7 -6 19 -9 27 -14 36 -25 90 -18 94 4 3 706 5
1560 5 854 0 1554 1 1556 3 6 6 19 203 19 305 1 57 5 103 9 103 5 0 6 4 2 10
-6 9 -9 41 -19 170 -3 36 -8 79 -11 95 -2 17 -7 44 -9 60 -14 87 -34 177 -58
253 -11 34 -21 68 -22 75 -2 6 -7 21 -11 32 -4 11 -21 54 -37 95 -47 120 -193
382 -260 465 -35 44 -48 59 -88 106 -55 64 -128 138 -194 193 -27 22 -58 49
-68 59 -10 9 -21 17 -26 17 -4 0 -19 11 -34 25 -15 14 -30 25 -33 25 -4 0 -21
11 -38 24 -50 37 -205 119 -313 166 -169 72 -393 135 -559 156 -22 3 -51 7
-65 9 -53 9 -336 24 -343 19z m213 -919 c143 -20 349 -101 424 -167 11 -10 23
-18 26 -18 4 0 20 -12 36 -26 85 -77 120 -113 158 -164 22 -30 43 -57 47 -60
3 -3 26 -48 52 -100 38 -79 97 -263 97 -304 0 -8 -258 -11 -1002 -9 -552 0
-1009 2 -1017 2 -16 1 -11 43 18 151 42 155 132 309 252 429 121 120 333 229
499 255 50 8 94 17 97 19 5 6 265 -1 313 -8z"/>
<path d="M21637 15554 c-1 -1 -60 -4 -132 -8 -71 -3 -146 -8 -165 -10 -19 -3
-57 -8 -85 -11 -135 -15 -368 -67 -475 -106 -30 -11 -63 -22 -72 -24 -9 -2
-47 -17 -83 -34 -37 -17 -69 -31 -72 -31 -2 0 -35 -17 -71 -37 -37 -21 -70
-37 -74 -35 -5 1 -8 -2 -8 -6 0 -5 -11 -14 -25 -20 -14 -7 -31 -16 -38 -22 -7
-5 -39 -30 -72 -56 -248 -193 -393 -425 -451 -724 -20 -103 -20 -426 0 -458 2
-4 7 -26 11 -49 13 -91 113 -333 137 -333 4 0 8 -6 8 -13 0 -12 143 -167 154
-167 3 0 18 -12 33 -26 33 -32 187 -134 201 -134 5 0 15 -7 22 -15 6 -8 15
-14 18 -13 4 1 21 -5 37 -14 59 -31 290 -105 386 -123 11 -2 29 -7 39 -10 10
-3 29 -8 42 -10 13 -3 34 -7 48 -10 14 -3 36 -7 50 -10 14 -3 61 -12 105 -21
44 -9 91 -18 105 -19 14 -2 26 -4 28 -5 3 -4 13 -5 76 -14 61 -8 76 -10 141
-22 22 -3 55 -7 72 -8 18 0 33 -5 33 -9 0 -5 5 -5 10 -2 6 4 34 2 63 -4 28 -6
63 -12 77 -15 82 -14 117 -21 223 -47 65 -16 126 -34 135 -38 9 -5 37 -17 61
-27 61 -25 134 -99 149 -150 61 -207 -92 -378 -383 -430 -11 -2 -33 -6 -50 -9
-122 -22 -525 -25 -567 -3 -12 6 -18 5 -18 -2 0 -6 -4 -9 -9 -6 -5 3 -42 11
-82 16 -97 14 -119 18 -149 24 -14 3 -38 8 -55 11 -57 11 -130 28 -145 33 -18
6 -27 8 -60 15 -38 8 -214 71 -315 112 -99 41 -199 90 -288 143 -32 19 -60 33
-62 31 -4 -5 -115 -240 -115 -244 0 -2 -24 -54 -54 -116 -53 -114 -63 -134
-171 -368 l-57 -124 23 -19 c28 -21 252 -135 319 -162 25 -9 54 -22 65 -27 63
-28 421 -133 528 -154 15 -3 38 -7 50 -10 13 -3 39 -7 58 -9 19 -3 34 -5 34
-6 0 -3 38 -9 85 -15 25 -3 56 -7 70 -10 23 -4 72 -9 190 -21 261 -25 654 -16
900 21 119 18 121 18 210 38 93 21 162 38 185 47 11 5 49 18 85 30 36 13 84
31 108 41 23 10 43 18 45 18 2 -1 114 58 172 90 16 9 38 24 49 34 11 9 24 17
28 17 5 0 28 15 51 33 165 129 275 255 355 405 39 73 89 208 98 262 3 14 6 30
9 37 24 69 24 365 0 473 -3 14 -8 39 -11 55 -9 50 -65 207 -84 234 -9 14 -32
49 -49 76 -42 66 -129 155 -221 227 -41 32 -79 61 -85 66 -5 4 -62 33 -125 64
-92 46 -265 107 -343 122 -7 2 -32 8 -57 15 -25 7 -54 15 -65 17 -11 2 -29 6
-40 8 -173 40 -186 43 -227 50 -13 2 -34 7 -48 10 -14 3 -41 8 -60 11 -38 5
-75 12 -117 21 -16 3 -41 7 -58 9 -16 2 -43 6 -60 9 -16 3 -41 8 -55 11 -233
41 -243 43 -340 66 -259 62 -349 109 -401 210 -29 58 -34 152 -11 216 23 64
113 152 195 191 55 27 124 53 152 58 6 1 35 6 65 13 96 19 181 25 345 24 229
-1 310 -9 550 -57 73 -14 310 -89 352 -111 15 -8 32 -15 36 -15 5 0 62 -27
127 -59 100 -50 121 -57 131 -45 6 8 8 14 5 14 -4 0 2 17 13 38 19 34 76 155
141 297 15 33 48 103 73 155 24 52 65 139 91 193 73 155 78 138 -65 206 -145
69 -373 148 -509 176 -8 2 -46 11 -85 20 -38 9 -81 18 -95 20 -143 23 -216 37
-237 45 -14 6 -23 6 -23 1 0 -6 -14 -6 -32 -1 -38 10 -121 18 -263 26 -94 5
-285 10 -288 8z"/>
<path d="M26027 15554 c-1 -1 -47 -5 -102 -8 -98 -6 -131 -10 -210 -22 -22 -3
-50 -7 -62 -9 -11 -2 -29 -6 -40 -9 -10 -3 -34 -8 -53 -11 -19 -3 -53 -11 -75
-17 -22 -6 -45 -12 -51 -14 -31 -6 -227 -77 -279 -100 -33 -15 -62 -28 -65
-29 -18 -4 -156 -79 -158 -86 -2 -5 -9 -9 -14 -9 -21 0 -198 -121 -293 -200
-47 -39 -227 -222 -255 -258 -14 -18 -33 -43 -44 -55 -22 -27 -116 -163 -135
-197 -118 -211 -201 -422 -236 -595 -44 -220 -49 -279 -49 -515 0 -165 5 -255
19 -344 4 -21 8 -50 10 -65 2 -14 4 -26 5 -26 2 0 5 -15 13 -55 15 -75 55
-215 67 -235 4 -5 13 -30 20 -55 15 -47 121 -267 150 -310 10 -14 30 -45 46
-70 144 -225 373 -445 625 -601 43 -27 83 -49 88 -49 5 0 11 -3 13 -7 3 -8
198 -103 210 -103 4 0 31 -11 60 -24 49 -22 195 -70 243 -80 11 -3 52 -12 90
-21 39 -10 79 -19 90 -20 11 -2 34 -6 50 -9 90 -18 78 -16 224 -31 131 -14
410 -19 541 -10 184 13 221 18 365 45 145 28 318 76 416 117 57 23 280 133
293 145 6 4 50 35 98 68 105 72 117 81 230 192 64 63 87 92 81 102 -4 8 -51
61 -104 118 -53 56 -120 129 -150 162 -30 32 -70 75 -89 96 -95 102 -221 239
-246 268 -16 17 -32 32 -36 32 -5 0 -41 -27 -81 -61 -96 -81 -189 -142 -295
-194 -72 -35 -146 -65 -172 -70 -3 -1 -14 -4 -25 -8 -20 -6 -29 -8 -115 -26
-188 -39 -488 -41 -657 -6 -349 74 -604 242 -759 500 -33 55 -92 191 -97 224
-2 11 -6 24 -10 27 -4 4 -7 17 -7 30 l0 22 1555 -1 c856 0 1558 3 1562 7 4 4
8 21 9 39 1 18 6 82 10 142 13 185 4 417 -22 533 -3 13 -7 43 -10 65 -35 264
-202 643 -402 907 -103 136 -388 400 -431 400 -6 0 -11 4 -11 8 0 13 -203 126
-300 168 -47 21 -121 50 -165 66 -76 27 -91 32 -132 42 -10 3 -54 14 -98 25
-77 19 -125 28 -190 36 -16 2 -46 6 -65 9 -79 12 -385 27 -393 20z m248 -918
c56 -9 84 -14 103 -20 9 -3 28 -7 42 -10 32 -5 116 -39 183 -72 123 -62 290
-209 353 -309 10 -16 22 -32 26 -35 8 -6 81 -163 94 -200 11 -34 11 -34 32
-122 17 -69 18 -77 3 -80 -9 -2 -466 -3 -1016 -3 -868 1 -1000 3 -1000 15 -1
8 5 36 11 63 7 26 10 47 8 47 -3 0 -2 6 3 13 4 6 8 14 9 17 8 45 76 209 97
235 4 6 22 32 40 60 44 68 161 184 233 231 32 22 61 42 62 47 2 4 12 7 23 7
10 0 19 4 19 8 0 10 149 67 225 86 33 8 87 18 120 22 33 3 61 7 62 8 6 5 230
-2 268 -8z"/>
<path d="M12558 15492 l-37 -3 14 -37 c7 -20 39 -98 70 -172 31 -74 93 -220
137 -325 44 -104 86 -203 93 -220 7 -16 41 -97 75 -180 34 -82 70 -168 80
-190 9 -22 34 -80 55 -130 21 -49 50 -117 64 -150 14 -33 26 -62 27 -65 0 -3
8 -22 17 -44 9 -21 17 -40 17 -42 0 -2 14 -33 30 -69 17 -36 30 -68 30 -71 0
-4 18 -46 50 -119 9 -20 117 -278 187 -445 19 -47 41 -98 48 -115 7 -16 20
-46 28 -65 8 -19 38 -91 67 -160 54 -130 91 -217 120 -285 10 -22 57 -134 105
-250 82 -199 105 -253 126 -300 20 -46 32 -80 31 -87 -1 -5 3 -8 8 -8 6 0 10
-7 10 -16 0 -9 6 -28 14 -42 8 -15 40 -90 72 -167 31 -77 67 -162 79 -190 12
-27 30 -70 39 -95 34 -83 38 -90 65 -91 14 -1 31 0 36 1 6 1 16 2 23 1 6 0 20
-1 30 -1 9 0 31 0 47 -1 17 0 37 0 45 1 8 0 24 0 35 0 11 -1 27 -1 35 -1 24 1
69 1 173 -2 53 -1 97 2 97 6 0 5 5 5 10 2 6 -4 36 -6 68 -6 61 1 70 1 175 -2
37 -1 67 2 67 6 0 5 5 5 10 2 9 -6 33 -6 133 -5 44 1 94 1 117 0 26 -2 32 -2
82 2 28 3 33 9 58 68 14 36 83 200 153 365 70 166 127 306 127 313 0 7 5 12
10 12 6 0 10 6 10 13 0 7 25 71 56 142 31 72 57 135 58 140 2 6 12 30 23 55
11 25 30 70 43 100 12 30 33 79 46 108 13 29 24 55 24 58 0 8 39 96 57 129 10
17 16 30 14 30 -4 0 46 125 114 280 14 30 37 86 40 95 3 8 35 83 45 105 5 11
21 49 36 85 14 36 35 85 46 110 10 25 23 54 28 65 4 11 15 36 24 57 9 20 16
39 16 42 0 3 11 29 24 58 25 52 228 532 271 638 44 110 187 446 211 498 13 29
24 55 24 58 0 5 17 46 95 229 8 17 25 56 39 88 14 31 22 57 19 57 -3 0 1 8 9
18 16 18 50 103 44 109 -8 8 -1139 4 -1146 -3 -4 -5 -18 -34 -30 -64 -25 -62
-31 -77 -58 -140 -11 -25 -39 -90 -62 -145 -23 -55 -48 -116 -56 -135 -9 -19
-19 -44 -24 -55 -24 -59 -43 -103 -55 -130 -7 -16 -30 -70 -50 -120 -21 -49
-43 -103 -50 -120 -94 -219 -117 -278 -115 -283 0 -1 -6 -15 -14 -30 -8 -15
-21 -43 -29 -62 -8 -19 -26 -61 -41 -93 -14 -32 -26 -63 -26 -70 0 -7 -4 -17
-8 -22 -5 -6 -21 -41 -37 -80 -16 -38 -38 -92 -50 -120 -24 -55 -87 -202 -106
-250 -7 -16 -12 -33 -11 -37 1 -5 -3 -8 -10 -8 -6 0 -9 -3 -5 -6 3 -3 -6 -32
-19 -63 -31 -67 -47 -104 -49 -111 -1 -3 -9 -22 -18 -44 -9 -21 -17 -40 -17
-42 0 -1 -13 -32 -30 -67 -16 -36 -30 -68 -30 -71 0 -4 -9 -25 -19 -49 -11
-23 -42 -98 -71 -167 -28 -69 -58 -137 -66 -152 -8 -16 -12 -28 -8 -28 3 0 1
-7 -6 -16 -12 -13 -16 -10 -31 23 -10 21 -18 42 -19 47 0 5 -9 27 -19 50 -11
23 -48 111 -82 196 -34 85 -68 171 -76 190 -20 48 -28 65 -55 135 -12 33 -26
62 -30 63 -5 2 -8 9 -8 16 0 7 -23 68 -51 137 -28 68 -52 129 -53 134 -2 6 -8
21 -14 35 -10 22 -98 235 -117 285 -4 11 -9 25 -10 30 -2 6 -13 33 -26 60 -13
28 -24 53 -25 58 -1 4 -3 9 -4 12 -1 3 -3 8 -5 13 -1 4 -11 29 -23 55 -12 27
-22 50 -22 52 0 2 -5 16 -12 32 -6 15 -12 30 -13 33 -1 3 -9 22 -18 44 -9 21
-17 41 -17 44 0 2 -9 23 -19 46 -35 74 -91 218 -91 232 0 8 -4 14 -10 14 -5 0
-10 6 -10 13 0 12 -59 163 -96 244 -8 17 -14 34 -14 38 0 3 -9 26 -21 51 -11
25 -52 125 -91 222 -38 97 -72 179 -73 180 -4 5 -1147 8 -1197 4z"/>
<path d="M17779 15492 l-25 -3 0 -2063 c0 -1445 3 -2063 10 -2064 6 -1 56 -1
111 -1 55 0 108 -1 118 -1 41 0 55 0 100 0 27 0 53 -2 58 -5 5 -4 9 -2 9 4 0
6 7 8 15 5 22 -9 145 -10 145 -2 0 4 6 5 13 3 20 -8 137 -11 137 -3 0 4 13 3
29 -2 15 -4 34 -4 41 0 7 5 23 5 34 0 12 -4 30 -4 41 0 11 4 27 4 35 0 8 -4
26 -4 40 0 14 3 44 3 68 0 23 -4 42 -4 42 1 0 4 15 4 33 0 18 -5 41 -5 52 -1
11 4 28 3 38 -2 12 -6 19 -5 23 6 3 8 6 940 7 2070 l2 2056 -45 0 c-297 3
-1111 4 -1131 2z"/>
</g>
</svg>
